<?xml version="1.0" encoding="UTF-8" standalone="no"?>
<!DOCTYPE svg PUBLIC "-//W3C//DTD SVG 1.1//EN" "http://www.w3.org/Graphics/SVG/1.1/DTD/svg11.dtd">
<svg width="100%" height="100%" viewBox="0 0 24 24" version="1.1" xmlns="http://www.w3.org/2000/svg" xmlns:xlink="http://www.w3.org/1999/xlink" xml:space="preserve" xmlns:serif="http://www.serif.com/" style="fill-rule:evenodd;clip-rule:evenodd;stroke-linecap:round;stroke-linejoin:round;">
    <path d="M22,16.92L22,19.92C22,19.923 22,19.925 22,19.928C22,21.025 21.097,21.928 20,21.928C19.94,21.928 19.88,21.925 19.82,21.92C16.743,21.586 13.787,20.534 11.19,18.85C8.774,17.315 6.725,15.266 5.19,12.85C3.5,10.241 2.448,7.271 2.12,4.18C2.115,4.12 2.112,4.06 2.112,4C2.112,2.904 3.014,2.001 4.11,2L7.11,2C8.109,1.99 8.97,2.731 9.11,3.72C9.237,4.68 9.471,5.623 9.81,6.53C10.084,7.26 9.908,8.086 9.36,8.64L8.09,9.91C9.513,12.413 11.587,14.487 14.09,15.91L15.36,14.64C15.914,14.092 16.74,13.916 17.47,14.19C18.377,14.529 19.32,14.763 20.28,14.89C21.281,15.031 22.025,15.91 22,16.92Z" style="fill:none;fill-rule:nonzero;stroke:rgb(253,28,21);stroke-width:2px;"/>
</svg>
