<?xml version="1.0" encoding="UTF-8" standalone="no"?>
<!DOCTYPE svg PUBLIC "-//W3C//DTD SVG 1.1//EN" "http://www.w3.org/Graphics/SVG/1.1/DTD/svg11.dtd">
<svg width="100%" height="100%" viewBox="0 0 24 24" version="1.1" xmlns="http://www.w3.org/2000/svg" xmlns:xlink="http://www.w3.org/1999/xlink" xml:space="preserve" xmlns:serif="http://www.serif.com/" style="fill-rule:evenodd;clip-rule:evenodd;stroke-linejoin:round;stroke-miterlimit:2;">
    <rect x="0" y="0" width="24" height="24" style="fill:none;fill-rule:nonzero;"/>
    <path d="M21,16.42L21,19.956C21,20.478 20.591,20.917 20.07,20.954C19.633,20.984 19.276,21 19,21C10.163,21 3,13.837 3,5C3,4.724 3.015,4.367 3.046,3.93C3.083,3.409 3.522,3 4.044,3L7.58,3C7.836,3 8.052,3.196 8.078,3.45C8.101,3.68 8.122,3.863 8.142,4.002C8.341,5.389 8.748,6.738 9.35,8.003C9.445,8.203 9.383,8.442 9.203,8.57L7.045,10.112C8.364,13.185 10.816,15.637 13.889,16.956L15.429,14.802C15.558,14.621 15.801,14.558 16.002,14.653C17.267,15.254 18.616,15.66 20.002,15.858C20.141,15.878 20.324,15.9 20.552,15.922C20.806,15.948 21.001,16.165 21.001,16.42L21,16.42Z" style="fill:rgb(253,28,21);fill-rule:nonzero;"/>
</svg>
